<svg width="173" height="34" viewBox="0 0 173 34" fill="none" xmlns="http://www.w3.org/2000/svg">
<rect width="173" height="34" fill="#1E1E1E"/>
<rect width="173" height="34" fill="#FCF7F7"/>
<path d="M10.2727 7.72727L12.3182 24.1364H12.5L20 7.72727H27.1364L15.5909 31H6.95455L3.13636 7.72727H10.2727ZM25.5142 31L29.3778 7.72727H35.696L34.1506 17.1364H34.4688L43.0142 7.72727H50.3778L40.8324 18.0909L46.696 31H39.1506L35.4233 22.2727L32.8324 25.0455L31.8324 31H25.5142Z" fill="#F80707"/>
<path d="M56.3636 31L60.2273 7.72727H74.1818L73.7727 10.2273H62.6364L61.3182 18.0909H71.4091L71 20.5909H60.9091L59.1818 31H56.3636ZM80.7045 31.3636C79.0985 31.3636 77.7538 30.9811 76.6705 30.2159C75.5871 29.4508 74.822 28.3788 74.375 27C73.9356 25.6212 73.8636 24.0152 74.1591 22.1818C74.447 20.3939 75.0189 18.8371 75.875 17.5114C76.7386 16.178 77.8106 15.1477 79.0909 14.4205C80.3788 13.6856 81.7955 13.3182 83.3409 13.3182C84.947 13.3182 86.2879 13.7045 87.3636 14.4773C88.447 15.2424 89.2121 16.3182 89.6591 17.7045C90.1061 19.0833 90.1818 20.697 89.8864 22.5455C89.5985 24.3182 89.0189 25.8674 88.1477 27.1932C87.2841 28.5114 86.2121 29.5379 84.9318 30.2727C83.6591 31 82.25 31.3636 80.7045 31.3636ZM80.75 28.9545C81.9773 28.9545 83.0417 28.6402 83.9432 28.0114C84.8523 27.3826 85.5871 26.553 86.1477 25.5227C86.7159 24.4924 87.0985 23.3788 87.2955 22.1818C87.4773 21.0455 87.4697 19.9886 87.2727 19.0114C87.0758 18.0265 86.6553 17.2348 86.0114 16.6364C85.3674 16.0303 84.4621 15.7273 83.2955 15.7273C82.0682 15.7273 80.9962 16.0455 80.0795 16.6818C79.1705 17.3182 78.4356 18.1553 77.875 19.1932C77.3144 20.2311 76.9394 21.3485 76.75 22.5455C76.5682 23.6818 76.572 24.7386 76.7614 25.7159C76.9583 26.6856 77.3788 27.4697 78.0227 28.0682C78.6742 28.6591 79.5833 28.9545 80.75 28.9545ZM99.7983 31.3636C98.1922 31.3636 96.8475 30.9811 95.7642 30.2159C94.6809 29.4508 93.9157 28.3788 93.4688 27C93.0294 25.6212 92.9574 24.0152 93.2528 22.1818C93.5407 20.3939 94.1127 18.8371 94.9688 17.5114C95.8324 16.178 96.9044 15.1477 98.1847 14.4205C99.4725 13.6856 100.889 13.3182 102.435 13.3182C104.041 13.3182 105.382 13.7045 106.457 14.4773C107.541 15.2424 108.306 16.3182 108.753 17.7045C109.2 19.0833 109.276 20.697 108.98 22.5455C108.692 24.3182 108.113 25.8674 107.241 27.1932C106.378 28.5114 105.306 29.5379 104.026 30.2727C102.753 31 101.344 31.3636 99.7983 31.3636ZM99.8438 28.9545C101.071 28.9545 102.135 28.6402 103.037 28.0114C103.946 27.3826 104.681 26.553 105.241 25.5227C105.81 24.4924 106.192 23.3788 106.389 22.1818C106.571 21.0455 106.563 19.9886 106.366 19.0114C106.17 18.0265 105.749 17.2348 105.105 16.6364C104.461 16.0303 103.556 15.7273 102.389 15.7273C101.162 15.7273 100.09 16.0455 99.1733 16.6818C98.2642 17.3182 97.5294 18.1553 96.9688 19.1932C96.4081 20.2311 96.0331 21.3485 95.8438 22.5455C95.6619 23.6818 95.6657 24.7386 95.8551 25.7159C96.0521 26.6856 96.4725 27.4697 97.1165 28.0682C97.768 28.6591 98.6771 28.9545 99.8438 28.9545ZM118.256 31.3636C116.794 31.3636 115.566 30.9962 114.574 30.2614C113.581 29.5189 112.881 28.4735 112.472 27.125C112.07 25.7689 112.021 24.1667 112.324 22.3182C112.634 20.4848 113.214 18.8939 114.062 17.5455C114.919 16.197 115.968 15.1553 117.21 14.4205C118.453 13.6856 119.809 13.3182 121.278 13.3182C122.415 13.3182 123.282 13.5076 123.881 13.8864C124.487 14.2576 124.926 14.6818 125.199 15.1591C125.472 15.6288 125.68 16.0152 125.824 16.3182H126.051L127.483 7.72727H130.165L126.301 31H123.71L124.165 28.3182H123.847C123.597 28.6364 123.248 29.0379 122.801 29.5227C122.354 30 121.763 30.428 121.028 30.8068C120.301 31.178 119.377 31.3636 118.256 31.3636ZM118.915 28.9545C119.991 28.9545 120.953 28.6742 121.801 28.1136C122.657 27.5455 123.369 26.7614 123.938 25.7614C124.506 24.7538 124.9 23.5909 125.119 22.2727C125.339 20.9697 125.331 19.8295 125.097 18.8523C124.862 17.8674 124.411 17.1023 123.744 16.5568C123.078 16.0038 122.195 15.7273 121.097 15.7273C119.968 15.7273 118.987 16.0189 118.153 16.6023C117.32 17.178 116.642 17.9621 116.119 18.9545C115.597 19.9394 115.233 21.0455 115.028 22.2727C114.824 23.5152 114.82 24.6439 115.017 25.6591C115.214 26.6667 115.631 27.4697 116.267 28.0682C116.911 28.6591 117.794 28.9545 118.915 28.9545ZM131.562 31L134.472 13.5455H137.153L134.244 31H131.562ZM136.631 10.5909C136.108 10.5909 135.657 10.4129 135.278 10.0568C134.907 9.70076 134.722 9.27273 134.722 8.77273C134.722 8.27273 134.907 7.8447 135.278 7.48864C135.657 7.13257 136.108 6.95454 136.631 6.95454C137.153 6.95454 137.6 7.13257 137.972 7.48864C138.35 7.8447 138.54 8.27273 138.54 8.77273C138.54 9.27273 138.35 9.70076 137.972 10.0568C137.6 10.4129 137.153 10.5909 136.631 10.5909ZM146.429 31.3636C144.755 31.3636 143.372 30.9924 142.281 30.25C141.19 29.5 140.429 28.4545 139.997 27.1136C139.565 25.7652 139.497 24.197 139.793 22.4091C140.088 20.6212 140.675 19.0455 141.554 17.6818C142.433 16.3106 143.527 15.2424 144.838 14.4773C146.149 13.7045 147.588 13.3182 149.156 13.3182C150.065 13.3182 150.94 13.4697 151.781 13.7727C152.622 14.0758 153.349 14.5682 153.963 15.25C154.577 15.9242 155.005 16.8182 155.247 17.9318C155.49 19.0455 155.474 20.4167 155.202 22.0455L155.02 23.1818H141.565L141.929 20.8636H152.656C152.83 19.8788 152.785 19 152.52 18.2273C152.262 17.4545 151.812 16.8447 151.168 16.3977C150.531 15.9508 149.724 15.7273 148.747 15.7273C147.74 15.7273 146.8 16 145.929 16.5455C145.058 17.0833 144.33 17.7652 143.747 18.5909C143.164 19.4091 142.8 20.2424 142.656 21.0909L142.338 23.0909C142.111 24.5379 142.145 25.6894 142.44 26.5455C142.743 27.4015 143.27 28.0189 144.02 28.3977C144.77 28.7689 145.709 28.9545 146.838 28.9545C147.558 28.9545 148.221 28.8561 148.827 28.6591C149.433 28.4545 149.974 28.1515 150.452 27.75C150.929 27.3409 151.33 26.8333 151.656 26.2273L154.111 26.9545C153.694 27.8333 153.107 28.6061 152.349 29.2727C151.599 29.9318 150.721 30.447 149.713 30.8182C148.713 31.1818 147.618 31.3636 146.429 31.3636ZM160.116 31.1818C159.541 31.1818 159.06 30.9848 158.673 30.5909C158.287 30.1894 158.086 29.7045 158.071 29.1364C158.063 28.5682 158.264 28.0947 158.673 27.7159C159.082 27.3295 159.563 27.1364 160.116 27.1364C160.677 27.1364 161.162 27.3333 161.571 27.7273C161.98 28.1212 162.177 28.5909 162.162 29.1364C162.154 29.5152 162.056 29.8598 161.866 30.1705C161.685 30.4811 161.438 30.7273 161.128 30.9091C160.825 31.0909 160.488 31.1818 160.116 31.1818Z" fill="#B70B0B"/>
</svg>
